<svg width="254" height="64" viewBox="0 0 254 64" fill="none" xmlns="http://www.w3.org/2000/svg">
<path d="M4.62054 55.0312C6.53234 56.7643 9.03403 57.8344 11.6077 58.02C11.6364 58.5006 11.6023 59.0038 11.3672 59.4238C11.132 59.8439 10.6532 60.1563 10.1791 60.0729C9.85921 60.0166 9.58851 59.7927 9.40409 59.5254C9.21966 59.258 9.10945 58.9477 9.00126 58.6414C8.67591 58.9048 8.34113 59.1702 7.94801 59.314C7.55489 59.4577 7.08677 59.4613 6.74414 59.2209C6.48387 59.0383 6.32614 58.7371 6.25349 58.4276C6.18083 58.1181 6.18434 57.7964 6.18823 57.4785C5.99467 57.7235 5.76883 57.9492 5.4943 58.098C5.21977 58.2468 4.89147 58.3129 4.58981 58.2323C4.24409 58.1399 3.96657 57.8618 3.81929 57.5357C3.67201 57.2096 3.64339 56.8401 3.67638 56.4838C3.72707 55.9361 3.92035 55.4022 4.62055 55.0312H4.62054Z" fill="white"/>
<path d="M56.7156 46.3224C56.4831 47.5692 56.1993 48.8172 55.6774 49.9731C55.1555 51.129 54.3783 52.1969 53.3184 52.8934C53.2107 52.9642 53.0981 53.033 53.0173 53.1334C52.9365 53.2338 52.8928 53.3754 52.9437 53.4938C53.0008 53.6269 53.1518 53.6881 53.2883 53.7364C53.5623 53.8333 53.8363 53.9301 54.1103 54.027C54.3708 54.1191 54.6453 54.2125 54.9178 54.167C55.3693 54.0916 55.6826 53.6423 55.7509 53.1896C55.8192 52.737 55.6965 52.2797 55.575 51.8384C55.9635 51.8691 56.3582 51.8994 56.7398 51.8201C57.1214 51.7408 57.4948 51.5354 57.6866 51.1962C57.8707 50.8707 57.8623 50.4576 57.7146 50.114C57.5669 49.7705 57.2928 49.4924 56.9801 49.2873C57.4981 49.146 58.0196 48.9484 58.4053 48.5749C58.7909 48.2014 59.0115 47.616 58.8269 47.1118C58.6902 46.7382 58.3554 46.4644 57.9888 46.3098C57.6222 46.1552 57.2217 46.1039 56.7155 46.3224H56.7156Z" fill="white"/>
<path d="M51.8071 38.5295C55.7218 39.9918 56.628 41.5968 57.1077 44.213C57.5375 46.5575 56.8435 50.4171 54.4036 52.3996C49.9441 56.0233 49.2383 54.8158 46.324 53.6367C46.7204 56.1937 44.5212 58.8427 42.3649 60.2731C40.2086 61.7034 38.0247 61.1733 35.4381 61.2453C32.8515 61.3173 30.2619 61.0435 27.6777 61.1755C25.29 61.2974 22.8547 61.7607 20.54 61.1627C18.2252 60.5646 16.0527 58.428 16.2586 56.2897C13.7631 58.3791 9.96493 58.7491 7.11302 57.1807C4.26112 55.6124 2.53938 52.2067 2.96726 48.9802C3.46076 45.2589 6.4048 42.3501 7.65645 38.8111C9.53562 33.4977 7.3884 27.6462 7.7486 22.0219C8.20414 14.9086 12.9013 8.40208 19.1847 5.03682C25.468 1.67156 33.1077 1.27943 39.9676 3.21554C42.9923 4.06924 45.2834 5.59827 47.6494 7.66712C50.6542 10.2946 52.3865 14.4326 53.3401 18.3086C54.801 24.2462 54.2924 29.395 50.293 34.7532" fill="#DFB193"/>
<path d="M36.5268 62.3103C34.7225 62.3103 33.0237 62.0477 31.4497 61.5235C31.0665 61.3959 30.8593 60.9819 30.9869 60.5987C31.1145 60.2155 31.5283 60.0086 31.9117 60.1359C34.1538 60.8824 36.6948 61.0425 39.4646 60.6122C40.3465 60.4537 41.149 60.1463 41.9893 59.6451C44.6677 58.0475 45.9696 55.326 45.9696 51.325C45.9696 50.9212 46.2971 50.5938 46.7009 50.5938C47.1047 50.5938 47.4322 50.9212 47.4322 51.325C47.4322 53.5186 47.0596 55.4204 46.3247 56.9775C45.5468 58.6256 44.3403 59.9457 42.7385 60.9011C41.7393 61.4972 40.7781 61.8633 39.7137 62.0533L39.6978 62.056C38.6094 62.2256 37.551 62.3103 36.5268 62.3103H36.5268Z" fill="#040000"/>
<path d="M25.6804 62.3097C21.9288 62.3097 19.0685 61.453 17.375 59.8141C16.2863 58.7607 15.7109 57.4212 15.7109 55.9404C15.7109 55.5365 16.0383 55.2091 16.4422 55.2091C16.8461 55.2091 17.1735 55.5365 17.1735 55.9404C17.1735 57.0156 17.5948 57.9917 18.392 58.7631C19.4573 59.7941 21.725 60.9901 26.4819 60.8337L26.5059 60.8334C29.6235 60.8334 31.8164 60.1834 33.2099 58.8463C34.5045 57.604 35.1338 55.7238 35.1338 53.0985C35.1338 52.6946 35.4612 52.3672 35.8651 52.3672C36.2689 52.3672 36.5963 52.6946 36.5963 53.0985C36.5963 59.2837 33.2993 62.2923 26.5179 62.2959C26.2343 62.3051 25.9547 62.3097 25.6804 62.3097L25.6804 62.3097Z" fill="#040000"/>
<path d="M11.7611 58.8397C11.2531 58.8397 10.724 58.7919 10.1719 58.6966C6.646 58.0877 3.82879 56.0457 2.63594 53.2341C1.43812 50.4109 1.94342 47.1433 4.0587 44.0333C4.80455 42.9366 5.24003 42.3449 5.55795 41.9128C6.13576 41.1277 6.29104 40.9167 7.2955 39.008C8.30147 37.0965 8.38609 35.431 8.27745 34.7484C8.18805 34.1863 8.06361 33.6105 7.93191 33.0009C7.46313 30.8313 6.87973 28.1311 7.16931 23.1714C7.29902 20.9499 7.63808 17.6019 9.07919 14.1914C10.6096 10.5696 13.1092 7.57895 16.5086 5.30255C20.3651 2.71996 24.4987 1 32.1374 1C36.75 1 40.901 2.10555 44.4751 4.28587C47.2748 5.99383 49.6762 8.38797 51.2369 11.0273C53.4207 14.7206 54.586 18.8925 54.607 23.092C54.6294 27.5995 53.3086 32.0586 50.787 35.9875C50.569 36.3274 50.1166 36.4261 49.7766 36.208C49.4367 35.9898 49.338 35.5375 49.5562 35.1976C54.208 27.9494 54.3656 19.1921 49.9779 11.7717C48.6867 9.58788 43.5839 2.46253 32.1374 2.46253C24.8676 2.46253 20.9572 4.08364 17.3223 6.51773C10.125 11.3374 8.91409 18.3792 8.62933 23.2567C8.35136 28.0172 8.91145 30.6093 9.36144 32.692C9.49752 33.3218 9.62607 33.9167 9.7218 34.5186C9.89195 35.5881 9.69756 37.584 8.58973 39.6891C7.53408 41.695 7.34903 41.9465 6.73591 42.7797C6.42474 43.2025 5.99857 43.7816 5.26794 44.8558C3.44192 47.5405 2.98532 50.3131 3.98224 52.6628C4.98006 55.0146 7.387 56.7315 10.4208 57.2554C15.8976 58.2017 17.7152 53.4817 20.0579 45.5966C20.1729 45.2094 20.5801 44.989 20.9671 45.1038C21.3543 45.2189 21.5749 45.626 21.4598 46.0131C20.3407 49.78 19.198 53.3547 17.53 55.6926C16.0257 57.801 14.128 58.8397 11.7611 58.8397H11.7611Z" fill="#040000"/>
<path d="M46.7004 51.9606C46.4932 51.9606 46.2874 51.873 46.1427 51.7027C45.8812 51.3949 45.9188 50.9334 46.2267 50.672C47.5326 49.5627 48.5126 48.5399 49.657 46.5936C50.4801 45.1938 50.9003 43.8312 51.0194 42.1753C51.1148 40.8497 50.9896 39.3507 50.6136 37.3149C50.4941 36.6679 50.2455 35.3215 50.3824 33.9292C50.4221 33.5272 50.7809 33.2338 51.1818 33.2731C51.5838 33.3126 51.8775 33.6705 51.838 34.0724C51.7212 35.2591 51.9363 36.4236 52.0519 37.0493C52.4513 39.2123 52.5828 40.8256 52.4782 42.2803C52.3421 44.1723 51.8607 45.7312 50.9177 47.335C49.6738 49.4502 48.5628 50.6066 47.1734 51.7867C47.0359 51.9035 46.8677 51.9606 46.7004 51.9606L46.7004 51.9606Z" fill="#040000"/>
<path d="M4.50731 58.5022C4.19333 58.5022 3.89513 58.4093 3.64483 58.1711C2.73879 57.3089 3.41711 55.1196 3.81599 54.5187C3.98354 54.2663 4.32382 54.1975 4.57622 54.3649C4.82858 54.5324 4.89739 54.8728 4.72994 55.1251C4.62314 55.2861 4.42238 55.7892 4.33061 56.3581C4.23295 56.9633 4.31918 57.2987 4.40095 57.3765C4.40403 57.3794 4.76069 57.6116 6.17797 56.5662C6.42179 56.3864 6.76506 56.4383 6.94489 56.682C7.12467 56.9258 7.07285 57.2691 6.82906 57.4489C6.4225 57.7488 5.40113 58.5022 4.50731 58.5022V58.5022Z" fill="#040000"/>
<path d="M7.21983 59.9423C7.05683 59.9423 6.89147 59.9084 6.72565 59.8318C5.59024 59.3071 5.52776 57.016 5.71191 56.3187C5.78925 56.0258 6.08945 55.851 6.38224 55.9285C6.67508 56.0058 6.84981 56.3059 6.77247 56.5988C6.72315 56.7855 6.69503 57.3264 6.79131 57.8946C6.89369 58.4989 7.08329 58.7887 7.18577 58.8361C7.18948 58.8373 7.60201 58.9428 8.60728 57.4968C8.78019 57.248 9.12203 57.1867 9.37068 57.3595C9.61937 57.5324 9.68083 57.8742 9.50797 58.1229C9.1718 58.6065 8.24321 59.9422 7.21983 59.9422V59.9423Z" fill="#040000"/>
<path d="M10.4441 60.6968C10.3956 60.6968 10.3461 60.6937 10.2954 60.6877C9.05373 60.5374 8.28997 58.3765 8.25082 57.6562C8.23439 57.3538 8.46626 57.0953 8.7687 57.0789C9.07132 57.0634 9.32965 57.2943 9.34611 57.5968C9.35661 57.7896 9.49613 58.313 9.76235 58.8241C10.0456 59.3676 10.315 59.5852 10.4271 59.5987H10.4273C10.4374 59.5987 10.8599 59.5598 11.3682 57.8873C11.4563 57.5976 11.7625 57.4343 12.0524 57.522C12.3422 57.6101 12.5058 57.9165 12.4177 58.2063C12.2268 58.8344 11.6608 60.6968 10.4441 60.6968V60.6968Z" fill="#040000"/>
<path d="M55.1531 54.7737C54.15 54.7737 52.944 54.1777 52.5486 53.8349C52.3197 53.6364 52.295 53.2901 52.4935 53.0612C52.6918 52.8324 53.0381 52.8077 53.2671 53.0061C53.413 53.1326 53.8863 53.3961 54.4388 53.56C55.026 53.7341 55.3702 53.6918 55.4577 53.6205C55.4609 53.618 55.7368 53.2936 54.8816 51.7544C54.7345 51.4897 54.8299 51.1557 55.0947 51.0086C55.3595 50.8614 55.6934 50.9569 55.8405 51.2217C56.172 51.8184 57.1811 53.6345 56.149 54.4722C55.8826 54.6884 55.5323 54.7737 55.1532 54.7737L55.1531 54.7737Z" fill="#040000"/>
<path d="M56.098 52.4105C55.4627 52.4105 54.8669 52.2999 54.5762 52.1817C54.2957 52.0674 54.1608 51.7475 54.275 51.4669C54.3892 51.1862 54.7096 51.0518 54.9897 51.1656C55.1686 51.2385 55.7019 51.3357 56.2773 51.3128C56.8897 51.2887 57.2014 51.1377 57.2615 51.0422C57.2637 51.0387 57.4206 50.6428 56.1153 49.4609C55.8908 49.2576 55.8735 48.9107 56.0769 48.6862C56.28 48.4617 56.6269 48.4444 56.8515 48.6478C57.3576 49.106 58.8976 50.5005 58.1901 51.6259C57.8142 52.2241 56.9228 52.4105 56.098 52.4105L56.098 52.4105Z" fill="#040000"/>
<path d="M56.3442 49.8414C56.3016 49.8414 56.2622 49.8401 56.2266 49.8374C55.9245 49.815 55.6979 49.552 55.7203 49.2499C55.7428 48.9479 56.0043 48.7199 56.3078 48.7436C56.5 48.758 57.0373 48.6864 57.5783 48.4878C58.1537 48.2765 58.4039 48.0371 58.4316 47.9277C58.4327 47.9237 58.4603 47.4987 56.8549 46.7752C56.5787 46.6508 56.4557 46.3261 56.5803 46.05C56.7045 45.7737 57.0295 45.6505 57.3055 45.7753C57.928 46.0558 59.8221 46.9093 59.4948 48.1978C59.2022 49.3499 57.1632 49.8414 56.3442 49.8414Z" fill="#040000"/>
<path d="M48.8256 55.4044C47.9974 55.4045 47.1472 55.2823 46.2851 55.0369C45.8967 54.9262 45.6715 54.5216 45.7821 54.1332C45.8927 53.7448 46.2972 53.5198 46.6857 53.6302C48.7245 54.211 50.6732 53.9701 52.3215 52.934C54.1993 51.7537 55.534 49.5842 55.9832 46.982C56.5516 43.6914 55.2228 41.6179 51.3968 39.8252C51.031 39.6538 50.8735 39.2184 51.0449 38.8527C51.2163 38.487 51.6518 38.3297 52.0173 38.5008C54.9957 39.8964 58.3019 42.1499 57.4245 47.2309C56.8969 50.2857 55.361 52.7509 53.0998 54.1723C51.7977 54.9907 50.3497 55.4043 48.8256 55.4044Z" fill="#040000"/>
<path d="M36.7449 61.9875C34.8419 61.9875 33.1183 61.6717 32.0275 61.3418C31.641 61.2248 31.4224 60.8167 31.5393 60.4301C31.6563 60.0435 32.0645 59.8251 32.451 59.9419C34.2098 60.4738 39.5084 61.31 42.8585 58.8233C44.9219 57.2917 45.9682 54.7189 45.9682 51.1766C45.9682 50.7727 46.2956 50.4453 46.6995 50.4453C47.1033 50.4453 47.4307 50.7727 47.4307 51.1766C47.4307 55.2072 46.1857 58.175 43.7302 59.9977C41.6919 61.5108 39.0829 61.9875 36.745 61.9875L36.7449 61.9875Z" fill="#040000"/>
<path d="M35.3938 32.7975C32.9223 33.2989 30.4225 33.8027 27.9026 33.7077C25.3826 33.6127 22.8013 32.8587 20.9583 31.1376C19.0116 29.3196 18.0922 26.6113 17.9157 23.9536C17.6722 20.2873 18.7819 16.486 21.2217 13.7386C23.6616 10.9913 27.4668 9.41986 31.1005 9.96474C32.579 10.1864 34.0114 10.737 35.5061 10.7656C37.2884 10.7998 39.0359 10.0874 40.8135 10.2207C42.7729 10.3677 44.5071 11.5196 46.0196 12.7738C47.3541 13.8803 48.6288 15.1408 49.3169 16.732C50.185 18.7392 50.0226 21.0219 49.8445 23.2015C49.6799 25.2161 49.5086 27.2615 48.7954 29.1528C48.0821 31.0441 46.7422 32.7947 44.8598 33.5311C41.6013 34.8059 37.9126 32.2866 35.3938 32.7976L35.3938 32.7975Z" fill="#FCF6E2"/>
<path d="M17.8828 23.8504C19.3895 21.3737 25.4794 18.4318 28.9297 17.5118C30.2168 17.1686 31.9935 16.8953 33.0131 17.0993C33.8812 17.2731 34.7376 17.953 34.8775 18.967C35.124 20.7549 33.716 21.4327 32.0768 22.0317C30.5456 22.5913 28.0381 23.7838 26.4203 24.6144C23.5555 26.0852 20.1162 28.7966 19.609 30.7781" fill="#BB967D"/>
<path d="M49.3289 26.9896C49.3977 26.4724 49.4834 25.9583 49.5686 25.4436C49.7106 24.5857 49.8494 23.7579 49.8565 22.8839C49.86 22.4488 49.8398 22.1111 49.7783 21.7605C49.7697 21.7119 49.7108 21.3088 49.7237 21.3292C49.6927 21.2165 49.6396 21.1048 49.5858 20.9934C49.5195 20.8804 49.465 20.7622 49.4122 20.617C49.3505 20.4474 49.3317 20.283 49.3472 20.1282C47.1906 18.9545 44.7788 17.9759 43.0384 17.5118C41.7513 17.1686 39.9747 16.8953 38.9551 17.0994C38.0869 17.2731 37.2305 17.953 37.0907 18.967C36.8441 20.7549 38.2522 21.4327 39.8913 22.0317C41.4226 22.5914 43.93 23.7839 45.5478 24.6144C46.7924 25.2534 48.1452 26.1267 49.3192 27.0724C49.3223 27.0446 49.3254 27.0161 49.3289 26.9897L49.3289 26.9896Z" fill="#BB967D"/>
<path d="M28.2675 34.7388C28.1286 34.7388 27.9855 34.7372 27.8381 34.734C24.1832 34.7329 21.6657 33.9448 19.916 32.2541C17.8592 30.2668 16.8594 26.9915 16.8594 22.2408C16.8594 18.8328 17.8837 15.6851 19.7438 13.3777C21.9864 10.5956 25.3662 9.125 29.5179 9.125C30.8569 9.125 31.9748 9.39213 33.0558 9.65041C34.0272 9.88255 34.9446 10.1018 35.9483 10.1018C36.78 10.1018 37.3824 9.98016 38.0799 9.83931C38.9813 9.65733 40.0026 9.45136 41.6536 9.50501C44.3139 9.59191 46.6335 11.1128 48.3614 13.9031C49.7498 16.145 50.6301 19.0891 50.7164 21.7786C50.9045 27.6417 49.0678 30.7947 47.4937 32.4075C46.0957 33.8399 44.321 34.6267 42.4918 34.6268C42.4751 34.6268 42.4587 34.6267 42.442 34.6267C40.7331 34.6267 39.8592 34.4187 39.0141 34.2176C38.2058 34.0253 37.4423 33.8436 35.8627 33.8313C34.2035 33.8313 33.1992 34.0472 32.1361 34.2758C31.0763 34.5037 29.9831 34.7388 28.2675 34.7388L28.2675 34.7388ZM29.5179 10.5875C21.2541 10.5875 18.3219 16.8651 18.3219 22.2408C18.3219 26.5739 19.1757 29.5052 20.9322 31.2024C22.4132 32.6333 24.5455 33.2715 27.846 33.2715C27.8514 33.2715 27.8568 33.2715 27.8622 33.2717C29.6637 33.3117 30.715 33.0855 31.8286 32.846C32.9197 32.6114 34.0481 32.3687 35.8685 32.3687C37.6196 32.3824 38.5006 32.592 39.3527 32.7948C40.1508 32.9847 40.9047 33.1641 42.4477 33.1641C42.4604 33.1642 42.4732 33.1642 42.486 33.1642C43.9235 33.1642 45.3268 32.5337 46.4471 31.3859C48.3915 29.3937 49.3885 25.9984 49.2546 21.8255C49.1763 19.3806 48.3775 16.7068 47.118 14.6731C46.1012 13.0312 44.3196 11.0554 41.6057 10.9667C40.1254 10.9184 39.2326 11.0986 38.3694 11.2729C37.6599 11.4162 36.9263 11.5643 35.9483 11.5643C34.7724 11.5643 33.7269 11.3145 32.7159 11.0729C31.6713 10.8233 30.6846 10.5875 29.5179 10.5875H29.5179Z" fill="#040000"/>
<path d="M33.9336 23.0159C33.9336 22.087 34.9718 21.1328 36.1447 21.1328C37.3175 21.1328 38.1808 22.087 38.1808 23.0159C38.1808 23.9448 37.3175 24.4966 36.1447 24.4966C34.9718 24.4966 33.9336 23.9448 33.9336 23.0159Z" fill="#040000"/>
<path d="M35.0299 27.3827C34.4345 27.3827 33.8127 27.1892 33.4455 26.7723C33.2453 26.545 33.2672 26.1985 33.4945 25.9983C33.7217 25.798 34.0684 25.82 34.2685 26.0472C34.5002 26.3101 35.2609 26.3795 35.5815 26.1669C35.8341 25.9995 36.1745 26.0684 36.3417 26.3209C36.5092 26.5733 36.4403 26.9137 36.1878 27.0811C35.8905 27.2782 35.4673 27.3827 35.0299 27.3827H35.0299Z" fill="#040000"/>
<path d="M38.9219 20.1036C39.4267 20.1036 39.836 19.6943 39.836 19.1895C39.836 18.6846 39.4267 18.2754 38.9219 18.2754C38.4171 18.2754 38.0078 18.6846 38.0078 19.1895C38.0078 19.6943 38.4171 20.1036 38.9219 20.1036Z" fill="#040000"/>
<path d="M38.9219 19.0981C38.9723 19.0981 39.0133 19.1391 39.0133 19.1895C39.0133 19.2399 38.9723 19.2809 38.9219 19.2809C38.8715 19.2809 38.8305 19.2399 38.8305 19.1895C38.8305 19.1391 38.8715 19.0981 38.9219 19.0981ZM38.9219 18.2754C38.4171 18.2754 38.0078 18.6846 38.0078 19.1895C38.0078 19.6943 38.4171 20.1036 38.9219 20.1036C39.4267 20.1036 39.836 19.6943 39.836 19.1895C39.836 18.6846 39.4267 18.2754 38.9219 18.2754Z" fill="#040000"/>
<path d="M32.6172 20.1016C33.122 20.1016 33.5313 19.6924 33.5313 19.1875C33.5313 18.6827 33.122 18.2734 32.6172 18.2734C32.1124 18.2734 31.7031 18.6827 31.7031 19.1875C31.7031 19.6924 32.1124 20.1016 32.6172 20.1016Z" fill="#040000"/>
<path d="M32.6172 19.0961C32.6676 19.0961 32.7086 19.1371 32.7086 19.1875C32.7086 19.2379 32.6676 19.2789 32.6172 19.2789C32.5668 19.2789 32.5258 19.2379 32.5258 19.1875C32.5258 19.1371 32.5668 19.0961 32.6172 19.0961ZM32.6172 18.2734C32.1124 18.2734 31.7031 18.6827 31.7031 19.1875C31.7031 19.6923 32.1124 20.1016 32.6172 20.1016C33.122 20.1016 33.5313 19.6923 33.5313 19.1875C33.5313 18.6827 33.122 18.2734 32.6172 18.2734Z" fill="#040000"/>
<path d="M34.1423 15.9602H31.4C31.0971 15.9602 30.8516 15.7146 30.8516 15.4117C30.8516 15.1089 31.0971 14.8633 31.4 14.8633H34.1423C34.4452 14.8633 34.6907 15.1089 34.6907 15.4117C34.6907 15.7146 34.4452 15.9602 34.1423 15.9602Z" fill="#040000"/>
<path d="M40.0969 15.9602H37.7203C37.4174 15.9602 37.1719 15.7146 37.1719 15.4117C37.1719 15.1089 37.4174 14.8633 37.7203 14.8633H40.0969C40.3998 14.8633 40.6454 15.1089 40.6454 15.4117C40.6454 15.7146 40.3998 15.9602 40.0969 15.9602Z" fill="#040000"/>
<path d="M249.086 37.1516C248.734 36.0266 248.258 34.823 247.204 33.6847C246.347 32.7576 245.57 32.5429 244.693 32.6582C244.693 32.6582 244.853 31.0035 244.853 31.0032C245.176 27.6534 245.167 24.7357 243.317 21.8483C242.498 20.5703 241.779 19.8913 239.718 18.2398C237.107 16.1474 233.833 15.3529 230.577 15.4929C228.562 15.5795 225.73 16.3843 223.722 17.5065C223.231 15.0856 222.344 13.1697 220.402 11.3308C218.422 9.35058 214.924 7.69072 210.558 7.67509C208.219 7.63212 202.507 7.98238 199.756 11.0397C198.594 12.3313 198.083 13.942 198.275 15.6985L198.49 17.5983C198.497 17.6595 198.504 17.7194 198.511 17.7792C197.908 17.2845 197.126 16.9472 196.112 16.86C195.525 16.8086 194.764 16.7727 193.954 16.7467L193.98 16.2766C194.018 15.5772 193.9 14.8555 193.592 14.2231C192.987 12.9805 191.938 12.0384 190.739 11.3816C190.08 11.0169 189.31 10.7919 188.532 10.8535C178.882 11.4199 171.411 16.1946 168.028 23.6393C167.591 22.9851 167.033 22.2934 166.39 21.6425C162.419 17.6139 156.598 15.0905 149.326 15.0905C139.835 15.0905 132.585 19.0638 129.21 25.5416C129.21 25.5416 129.278 24.7676 129.278 24.7675C129.547 21.6908 129.452 18.3523 127.959 15.5715C126.574 12.9922 124.244 10.7028 121.585 9.46357C119.484 8.48437 117.091 8.22588 114.796 8.22588C111.128 8.22588 108.002 8.93942 105.235 10.4069C103.206 11.4863 102.155 13.8209 102.678 16.0839C102.848 16.817 103.088 17.9681 103.309 19.4342C102.688 18.8847 101.926 18.3561 100.988 17.8782C97.972 16.3418 94.0853 15.6256 88.7572 15.6256C70.8841 15.6256 69.4948 25.7806 69.4948 28.8926C69.4948 31.9798 70.5391 34.7428 72.4505 36.7597C70.4004 37.9095 69.0312 39.9811 69.0312 42.2884C69.0312 46.0775 72.3001 49.3455 75.3093 51.2309C79.2554 53.7034 84.0481 54.0905 88.5905 54.0905C93.3284 54.0905 98.5113 53.5042 102.551 50.8075C103.746 50.0092 104.694 49.0318 105.606 47.9337C106.147 48.8412 107.182 49.9981 107.898 50.6101C110.606 52.9226 114.157 54.0774 117.681 54.0774C124.073 54.0774 129.277 50.8678 131.475 46.0801C132.703 48.0962 134.612 49.7236 136.628 50.9191C140.604 53.2768 145.285 54.0905 149.855 54.0905C159.577 54.0905 166.957 50.0306 170.218 43.4388C171.079 45.6504 172.057 47.4568 173.831 49.279C176.861 52.4266 181.036 53.998 186.568 54.0866C191.368 54.166 195.241 53.1868 198.092 51.1829C198.559 50.8561 199.059 50.4564 199.559 50.0084C199.817 50.4967 200.064 50.9746 200.365 51.3083C201.45 52.5112 202.643 53.0784 205.141 53.0787L220.233 53.1412H220.294C221.781 53.1412 223.049 52.5319 223.873 51.4199C224.131 51.0709 224.337 50.6829 224.49 50.2597C226.73 52.6868 229.958 53.9238 234.088 53.9381H234.154C237.739 53.9381 241.088 52.9681 243.842 51.1321C248.374 48.1126 250.629 42.1022 249.086 37.1517L249.086 37.1516Z" fill="#222222"/>
<path d="M71.6954 42.2881C71.6954 40.2148 73.6417 38.6685 75.6897 38.4985C77.9932 38.3073 80.9223 38.8096 82.8333 40.2604C83.3472 40.6505 83.7885 41.1577 84.0111 41.7633C84.5072 43.1131 83.7358 44.3455 82.5368 44.4221C83.5743 45.0907 86.2405 44.9738 87.5866 44.3869C88.6087 43.9412 89.8409 42.6175 88.566 41.248C87.7191 40.3383 86.4478 39.7524 85.1749 39.3379C83.9921 38.9527 82.7786 38.6846 81.572 38.3842C79.1533 37.7822 76.6847 37.0368 74.7964 35.329C72.9619 33.6698 72.1591 31.3267 72.1591 28.8926C72.1591 22.7363 77.2451 18.293 88.7549 18.293C93.8404 18.293 97.2297 18.9584 99.7749 20.255C102.618 21.7033 103.318 23.7556 103.318 24.9334C103.318 28.1455 100.54 29.4398 98.2136 29.7404C91.4178 30.6185 90.4409 25.5464 94.0531 23.956C92.8239 23.7891 91.6986 23.9889 90.5874 24.508C89.5035 25.0143 88.6293 25.9575 88.6286 27.2469C88.6279 28.3704 89.29 29.2141 90.9498 29.6422L95.8748 30.927C100.746 32.2117 103.53 34.7813 103.53 39.3856C103.53 45.7559 98.2838 49.8247 86.988 49.8247C82.7868 49.8247 77.7756 49.4512 74.2667 46.853C72.8837 45.8289 71.6954 44.017 71.6954 42.2881Z" fill="#49C1E2"/>
<path d="M171.624 36.1138C171.624 34.6938 171.781 33.156 172.095 31.2659C172.184 30.7279 171.81 30.2197 171.269 30.1499L169.951 29.9799C169.393 29.9079 169.017 29.3743 169.129 28.8228C170.95 19.8308 178.352 14.12 188.685 13.5134C189.263 13.4795 189.746 13.9506 189.714 14.5287L189.506 18.3422C189.476 18.894 189.916 19.3579 190.468 19.3579C192.171 19.3579 194.555 19.401 195.879 19.5152C197.748 19.6763 197.885 22.2188 197.843 24.6183C197.789 27.7764 197.634 30.5907 195.123 30.5746L190.306 30.6532C189.804 30.6532 189.392 31.0394 189.345 31.5389C189.309 31.9293 189.291 32.2909 189.291 32.6341C189.291 35.1501 190.307 35.9532 192.502 35.9532C194.014 35.9533 195.409 34.5398 197.33 35.8741C198.432 36.6399 199.143 38.2919 199.119 39.5774C199.036 43.9047 196.941 46.0072 194.958 47.3999C193.002 48.773 189.881 49.8964 185.008 49.8185C177.086 49.6918 171.624 45.5357 171.624 36.1138H171.624Z" fill="#F9CE78"/>
<path d="M222.099 37.6432C222.106 35.8318 222.302 33.7852 222.732 31.6804C222.785 31.4205 222.637 31.1586 222.385 31.0779C222.239 31.0315 222.094 31.0048 221.962 31.0044C220.57 30.9996 219.656 32.2276 219.641 36.4569C219.641 36.4569 219.317 41.6953 220.125 44.2428C220.956 46.865 220.636 48.8967 218.662 48.8736L203.551 48.8112C200.931 48.8021 200.533 47.2242 200.911 44.9364C200.911 44.9364 202.176 35.5033 202.054 30.4031C201.87 22.7196 201.393 19.672 200.925 15.4084C200.44 10.9823 207.586 10.3316 210.549 10.3419C216.865 10.3638 219.935 13.4382 219.911 20.237C219.906 21.8382 219.723 23.703 219.125 25.8303C219.031 26.1645 219.273 26.4981 219.621 26.4993C219.845 26.5001 220.041 26.3545 220.113 26.1419C221.764 21.2655 225.839 18.1162 231.535 18.1359C237.906 18.158 241.264 22.3455 240.598 29.1421L240.154 33.7445C239.988 35.2963 240.103 36.1094 241.127 36.1619C241.639 36.1882 242.131 35.7865 242.683 35.4143C243.666 34.7522 244.622 35.3303 244.939 36.3471C246.174 40.3078 244.166 45.0444 240.763 47.3131C238.441 48.8613 235.621 49.682 232.497 49.6712C225.537 49.6471 222.071 45.6732 222.099 37.6432Z" fill="#FFAB18"/>
<path d="M105.855 38.0875L106.39 30.8606C106.888 24.6166 106.086 18.9844 105.276 15.4831C105.027 14.4057 105.51 13.2804 106.487 12.762C108.784 11.5429 111.498 10.8926 114.795 10.8926C122.825 10.8926 125.716 14.9074 125.02 22.9375L124.057 33.9122C123.896 35.4645 124.538 35.9466 125.716 35.9466C125.721 35.9466 125.726 35.9465 125.731 35.9465C127.025 35.938 128.122 36.867 128.27 38.1532C128.314 38.5411 128.34 38.92 128.34 39.2652C128.34 45.1009 123.468 49.8118 116.08 49.8118C109.121 49.8118 105.266 45.85 105.855 38.0875Z" fill="#6EB2EA"/>
<path d="M149.321 17.7578C137.383 17.7578 129.781 24.4492 129.781 34.4062C129.781 43.8288 137.276 49.8242 148.25 49.8242C160.081 49.8242 167.79 43.2396 167.79 33.6569C167.79 23.86 160.456 17.7578 149.321 17.7578Z" fill="#F7AC92"/>
<path d="M243.788 38.5212C244.065 45.0019 236.387 49.0522 230.754 47.1682C230.404 47.0675 230.202 46.7022 230.303 46.352C230.392 46.0423 230.691 45.8461 231.001 45.8787C235.925 46.5786 241.96 43.9375 242.475 38.5276C242.515 37.7185 243.742 37.7132 243.788 38.5213L243.788 38.5212Z" fill="#FFDFA7"/>
<path d="M197.323 38.9724C197.634 45.81 189.139 48.9686 183.479 47.2575C183.132 47.1495 182.938 46.7804 183.045 46.4334C183.143 46.1169 183.459 45.9285 183.775 45.9783C188.623 46.533 195.497 44.678 196.01 38.9789C196.056 38.1774 197.271 38.1722 197.323 38.9724Z" fill="#FFEDCE"/>
<path d="M165.248 38.2069C163.179 44.4332 156.283 47.4541 150.126 47.3903C149.75 47.4029 149.435 47.1079 149.422 46.7323C149.41 46.3848 149.662 46.0872 149.997 46.0363C155.737 45.3822 161.254 42.8936 163.983 37.7074C164.326 36.9675 165.505 37.4368 165.248 38.2069L165.248 38.2069Z" fill="#FDE7DF"/>
<path d="M101.622 39.5575C101.801 44.904 94.8523 48.2136 90.183 47.7438C89.8207 47.7046 89.5587 47.3798 89.5976 47.0178C89.6309 46.7072 89.874 46.4709 90.1705 46.4332C92.3423 46.0884 94.5773 45.556 96.512 44.4137C98.18 43.3149 100.199 41.734 100.312 39.6578C100.294 38.8463 101.518 38.7544 101.622 39.5575V39.5575Z" fill="#B4E9F2"/>
<path d="M126.186 39.1464C126.623 45.757 118.075 49.5639 112.729 46.5917C112.414 46.4101 112.305 46.0078 112.486 45.6927C112.65 45.4069 112.995 45.293 113.292 45.4049C117.891 46.9634 124.508 44.5454 124.872 39.1529C124.916 38.3482 126.133 38.3437 126.186 39.1464L126.186 39.1464Z" fill="#B8D9F5"/>
<path d="M148.789 39.653C147.451 39.653 146.648 37.6719 146.648 33.9245C146.648 29.8021 147.505 27.7148 148.789 27.7148C150.128 27.7148 150.931 29.6953 150.931 33.4434C150.931 37.5651 150.075 39.653 148.789 39.653Z" fill="#222222"/>
</svg>
